# xmcd
#
# Track frame offsets: 
#        150
#        23220
#        36672
#        54455
#        71423
#        93141
#        106109
#        131357
#        143434
#        158798
#        176375
#        192464
#        209138
#        228125
#        248223
#        261231
#        276253
#        287048
#        299459
#        314266
#        323557
#
# Disc length: 4454 seconds
#
# Revision: 0
# Processed by: cddbd v1.5.2PL0 Copyright (c) Steve Scherf et al.
# Submitted via: ExactAudioCopy v1.3
#
DISCID=33116415
DTITLE=Various Artist - Random Acts Of Country
DYEAR=2012
DGENRE=Country
TTITLE0=Alan Jackson - Good Time
TTITLE1=Brooks And Dunn - Little Miss Honky Tonk
TTITLE2=Carrie Underwood - Cowboy Casanova
TTITLE3=Tim McGraw - Not A Moment Too Soon
TTITLE4=Miranda Lambert - White Liar
TTITLE5=Pam Tillis - Mi Vida Loca (My Crazy Life)
TTITLE6=Sara Evans - Born To Fly
TTITLE7=Rodney Atkins - 15 Minutes
TTITLE8=Kenny Chesney - Shes Got It All
TTITLE9=Wynonna Judd - I Saw The Light
TTITLE10=Lonestar - Smile
TTITLE11=Mary Chapin Carpenter - Shut Up And Kiss Me
TTITLE12=Phil Vassar - Im Alright
TTITLE13=Rodney Crowell - After All This Time
TTITLE14=Waylon Jennings - The Eagle
TTITLE15=Willie Nelson - Nothing I Can Do About It Now
TTITLE16=Johnny Cash - Daddy Sang Bass
TTITLE17=Hank Snow - Im Movin' On
TTITLE18=George Jones - He Stopped Loving Her Today
TTITLE19=Charley Pride - Kiss An Angel Good Mornin
TTITLE20=Kris Kristofferson - Help Me Make It Through The Night
EXTD=
EXTT0=
EXTT1=
EXTT2=
EXTT3=
EXTT4=
EXTT5=
EXTT6=
EXTT7=
EXTT8=
EXTT9=
EXTT10=
EXTT11=
EXTT12=
EXTT13=
EXTT14=
EXTT15=
EXTT16=
EXTT17=
EXTT18=
EXTT19=
EXTT20=
PLAYORDER=
